<svg width="894" height="800" viewBox="0 0 894 800" fill="none" xmlns="http://www.w3.org/2000/svg">
<path d="M228 724.078C228 734.554 231.951 744.601 238.983 752.009C246.016 759.417 255.554 763.578 265.5 763.578C275.446 763.578 284.984 759.417 292.016 752.009C299.049 744.601 303 734.554 303 724.078C303 713.602 299.049 703.555 292.016 696.147C284.984 688.74 275.446 684.578 265.5 684.578C255.554 684.578 246.016 688.74 238.983 696.147C231.951 703.555 228 713.602 228 724.078Z" fill="#005BFF"/>
<g clip-path="url(#clip0_2_23)">
<path d="M466.645 570.025C463.322 571.514 460.18 571.787 459.65 570.606C459.121 569.424 461.347 567.267 464.66 565.756C466.594 564.89 468.578 563.975 470.502 563.088C473.806 561.556 477 561.234 477.659 562.383C478.31 563.51 476.154 565.662 472.789 567.221C470.865 568.109 468.76 569.078 466.645 570.025C466.706 569.998 466.706 569.998 466.645 570.025ZM442.353 580.418C442.172 580.499 441.93 580.607 441.679 580.694L435.4 583.198C432.009 584.536 429.223 584.469 429.126 583.12C429.02 581.749 431.736 579.553 435.066 578.241C437.038 577.461 439.01 576.68 440.973 575.879C444.354 574.519 447.242 574.488 447.409 575.832C447.667 577.057 445.435 579.037 442.353 580.418ZM496.381 555.749C493.42 557.076 490.475 557.467 489.571 556.582C488.558 555.617 490.373 553.515 493.62 551.854L499.276 548.933C502.453 547.278 505.941 546.644 507.065 547.533C508.189 548.422 506.453 550.54 503.287 552.217C501.29 553.266 499.284 554.294 497.277 555.322C496.985 555.479 496.683 555.614 496.381 555.749ZM411.848 591.841C411.364 592.057 410.871 592.252 410.369 592.426C408.298 593.147 406.217 593.847 404.137 594.547C400.79 595.66 398.387 595.318 398.784 593.773C399.18 592.229 402.205 590.074 405.552 588.962C407.512 588.316 409.522 587.622 411.472 586.954C414.86 585.772 417.323 586.087 417.048 587.577C416.695 588.895 414.506 590.65 411.848 591.841ZM524.838 540.241C522.24 541.405 519.553 541.886 518.345 541.293C516.868 540.588 518.202 538.546 521.26 536.789C523.047 535.757 524.824 534.703 526.601 533.649C529.64 531.849 533.302 530.956 534.83 531.613C536.367 532.291 535.154 534.279 532.175 536.051C530.347 537.154 528.389 538.289 526.542 539.349C525.977 539.705 525.442 539.97 524.838 540.241ZM381.594 601.397C380.809 601.749 380.064 602.031 379.231 602.275C377.172 602.862 375.113 603.449 373.106 603.988C369.812 604.896 367.855 604.251 368.754 602.533C369.592 600.842 372.936 598.751 376.239 597.865C378.177 597.332 380.115 596.799 382.043 596.244C385.327 595.315 387.395 595.884 386.617 597.548C386.026 598.819 384.011 600.314 381.594 601.397ZM551.512 523.829C549.216 524.858 546.829 525.36 545.446 525.026C543.575 524.574 544.327 522.69 547.197 520.837C548.824 519.773 550.502 518.66 552.12 517.574C554.91 515.705 558.728 514.51 560.66 514.935C562.591 515.359 561.96 517.189 559.169 519.058C557.441 520.219 555.712 521.381 553.973 522.521C553.115 523.034 552.298 523.477 551.512 523.829ZM352.347 608.826C351.32 609.286 350.254 609.661 349.191 609.879C347.275 610.299 345.289 610.724 343.364 611.123C340.245 611.772 338.742 610.847 340.102 609.025C341.402 607.231 345.004 605.23 348.133 604.602C349.988 604.209 351.844 603.816 353.629 603.429C356.799 602.731 358.353 603.608 357.123 605.397C356.292 606.62 354.462 607.879 352.347 608.826ZM575.749 506.834C573.755 507.727 571.667 508.25 570.17 508.147C567.905 507.949 568.164 506.26 570.715 504.344C572.183 503.248 573.641 502.13 575.1 501.013C575.687 500.559 576.377 500.117 577.13 499.711C577.883 499.306 578.686 498.945 579.49 498.649C580.295 498.353 581.086 498.129 581.818 497.988C582.551 497.847 583.21 497.794 583.758 497.83C584.309 497.864 584.739 497.987 585.022 498.192C585.306 498.398 585.438 498.681 585.41 499.027C585.383 499.372 585.197 499.772 584.863 500.205C584.529 500.637 584.054 501.093 583.464 501.546C581.955 502.712 580.386 503.905 578.807 505.077C577.876 505.752 576.836 506.346 575.749 506.834ZM324.697 613.992C323.368 614.588 322.032 615.006 320.749 615.22C318.916 615.499 317.072 615.758 315.29 615.989C312.415 616.374 311.446 615.184 313.147 613.313C314.858 611.463 318.607 609.629 321.542 609.216C323.255 608.991 324.958 608.744 326.721 608.469C329.647 608.036 330.736 609.172 329.096 611.016C328.137 612.116 326.45 613.207 324.697 613.992ZM597.131 489.621C595.439 490.379 593.631 490.879 592.202 490.927C589.622 490.999 589.318 489.511 591.509 487.6C592.818 486.473 594.066 485.372 595.305 484.25C597.426 482.345 601.262 480.704 603.892 480.583C606.522 480.462 606.947 481.897 604.826 483.801C603.536 484.972 602.187 486.17 600.827 487.346C599.833 488.204 598.52 488.998 597.131 489.621ZM299.057 616.84C297.486 617.544 295.818 618.033 294.408 618.123C292.727 618.257 291.087 618.322 289.456 618.407C286.826 618.528 286.401 617.094 288.523 615.189C290.644 613.285 294.48 611.644 297.11 611.523C298.67 611.443 300.23 611.363 301.781 611.261C304.462 611.092 305.008 612.472 302.956 614.371C301.991 615.293 300.567 616.163 299.057 616.84ZM615.344 472.461C613.894 473.111 612.427 473.562 611.115 473.711C608.282 474.026 607.434 472.781 609.275 470.899C610.313 469.815 611.402 468.682 612.43 467.577C614.201 465.7 617.95 463.866 620.835 463.502C623.719 463.139 624.688 464.329 622.916 466.206C621.837 467.36 620.698 468.541 619.619 469.695C618.552 470.715 617.036 471.703 615.344 472.461ZM276.035 617.276C274.162 618.116 272.215 618.627 270.747 618.588C269.269 618.528 267.791 618.468 266.373 618.381C264.057 618.233 264.126 616.603 266.607 614.692C269.088 612.781 272.94 611.339 275.256 611.488C276.603 611.58 278.002 611.625 279.4 611.669C281.766 611.769 281.759 613.371 279.418 615.271C278.455 616.038 277.244 616.735 276.035 617.276ZM630.023 455.672C628.875 456.187 627.679 456.594 626.536 456.796C623.459 457.375 622.137 456.369 623.507 454.569C624.335 453.501 625.163 452.434 625.92 451.373C627.221 449.578 630.832 447.599 633.951 446.95C637.07 446.3 638.513 447.253 637.213 449.047C636.404 450.157 635.535 451.295 634.656 452.41C633.746 453.618 631.957 454.806 630.023 455.672ZM255.953 615.365C253.777 616.339 251.54 616.851 250.125 616.608C248.87 616.397 247.605 616.165 246.41 615.926C244.428 615.551 245.119 613.693 247.84 611.83C250.62 609.94 254.387 608.793 256.369 609.169C257.494 609.413 258.68 609.63 259.856 609.825C261.898 610.174 261.327 611.977 258.677 613.835C257.848 614.412 256.92 614.931 255.953 615.365ZM640.772 439.664C639.866 440.07 638.991 440.385 638.078 440.614C634.825 441.452 632.979 440.731 633.958 439.029C634.525 438.027 635.082 437.004 635.589 436.029C636.497 434.333 639.841 432.242 643.074 431.361C646.316 430.501 648.274 431.146 647.426 432.815C646.878 433.86 646.34 434.926 645.722 435.977C644.981 437.237 643.008 438.663 640.772 439.664ZM239.35 611.017C236.872 612.127 234.336 612.619 233.035 612.144C232.002 611.782 231.02 611.371 230.047 610.981C228.519 610.325 229.663 608.342 232.702 606.542C235.68 604.77 239.394 603.828 240.931 604.506C241.834 604.901 242.796 605.269 243.75 605.616C245.398 606.219 244.315 608.174 241.356 609.989C240.73 610.373 240.014 610.719 239.35 611.017ZM647.416 424.696C646.812 424.967 646.188 425.195 645.555 425.401C642.189 426.47 639.898 426.053 640.415 424.454C640.721 423.518 640.966 422.608 641.212 421.699C641.608 420.154 644.694 417.973 648.041 416.86C651.387 415.747 653.799 416.111 653.403 417.655C653.177 418.608 652.89 419.587 652.533 420.572C652.111 421.896 650.014 423.532 647.416 424.696ZM226.453 604.416C223.673 605.661 220.828 606.111 219.771 605.372C219.031 604.853 218.28 604.312 217.591 603.744C216.467 602.855 218.142 600.764 221.369 599.06C224.536 597.384 228.024 596.749 229.158 597.66C229.828 598.185 230.499 598.71 231.22 599.186C232.404 600.048 230.86 602.107 227.703 603.805C227.289 604.016 226.876 604.227 226.453 604.416ZM649.819 411.112C649.517 411.247 649.154 411.41 648.782 411.551C645.432 412.819 642.696 412.704 642.72 411.3L642.703 408.832C642.657 407.435 645.313 405.265 648.713 403.948C652.113 402.631 654.891 402.676 654.936 404.074C654.962 404.94 654.987 405.805 654.951 406.698C654.98 407.897 652.719 409.813 649.819 411.112ZM217.581 595.625C214.439 597.033 211.395 597.365 210.644 596.335C210.196 595.659 209.738 594.961 209.35 594.258C208.7 593.131 210.846 590.957 214.15 589.425C217.455 587.894 220.708 587.545 221.358 588.672C221.727 589.332 222.165 589.987 222.594 590.62C223.365 591.693 221.289 593.861 217.994 595.414C217.823 595.517 217.702 595.571 217.581 595.625ZM647.997 399.111L647.816 399.192C644.473 400.638 641.382 400.863 640.964 399.606C640.716 398.891 640.399 398.182 640.091 397.495C639.561 396.314 641.848 394.129 645.171 392.64C648.494 391.151 651.646 390.9 652.176 392.081C652.503 392.811 652.839 393.563 653.106 394.32C653.505 395.534 651.26 397.649 647.997 399.111ZM212.84 584.881L212.417 585.07C209.055 586.473 206.055 586.579 205.768 585.289C205.562 584.505 205.416 583.694 205.33 582.855C205.103 581.538 207.679 579.353 211.05 577.971C214.422 576.59 217.31 576.559 217.537 577.876C217.664 578.645 217.8 579.435 217.987 580.176C218.256 581.423 215.982 583.473 212.84 584.881ZM642.112 389.214C639.091 390.567 636.067 390.942 635.274 389.982C634.785 389.376 634.235 388.797 633.625 388.245C632.673 387.253 634.488 385.151 637.734 383.49C640.99 381.851 644.377 381.313 645.39 382.278C646.019 382.873 646.588 383.495 647.096 384.144C647.988 385.163 646.043 387.298 642.777 388.916L642.112 389.214ZM212.307 572.354C211.884 572.543 211.451 572.711 211.018 572.879C207.64 574.083 205.076 573.866 205.221 572.408C205.317 571.488 205.482 570.563 205.648 569.637C205.914 568.126 208.86 565.955 212.248 564.773C215.636 563.59 218.149 563.857 217.883 565.368C217.698 566.251 217.583 567.127 217.468 568.004C217.256 569.312 215.086 571.109 212.307 572.354ZM632.061 381.029C629.342 382.247 626.636 382.685 625.468 382.022C624.687 381.573 623.895 381.102 623.053 380.68C621.637 379.948 622.981 377.927 626.039 376.17C629.097 374.413 632.719 373.59 634.135 374.323L636.719 375.718C638.085 376.499 636.61 378.552 633.472 380.293C633.078 380.547 632.605 380.785 632.061 381.029ZM216.026 558.309C215.362 558.606 214.617 558.888 213.914 559.1C210.589 560.1 208.47 559.579 209.118 557.948C209.535 556.936 209.952 555.924 210.43 554.885C211.147 553.248 214.472 551.114 217.746 550.163C221.02 549.212 223.098 549.802 222.381 551.439C221.944 552.408 221.517 553.399 221.141 554.341C220.559 555.633 218.504 557.199 216.026 558.309ZM618.134 375.044C615.777 376.1 613.26 376.634 611.918 376.23C610.904 375.91 609.83 375.618 608.765 375.347C606.945 374.847 607.767 372.957 610.577 371.131C613.447 369.278 617.233 368.175 619.044 368.653C620.188 368.94 621.281 369.275 622.365 369.589C624.125 370.116 623.182 372.06 620.293 373.87C619.616 374.303 618.859 374.719 618.134 375.044ZM224.026 542.965C223.059 543.398 222.054 543.746 221.07 543.98C217.859 544.748 216.185 543.925 217.294 542.19C217.972 541.113 218.701 539.987 219.449 538.904C220.619 537.142 224.201 535.098 227.311 534.427C230.471 533.708 232.095 534.579 230.855 536.347C230.158 537.381 229.47 538.437 228.833 539.445C228.073 540.662 226.141 542.018 224.026 542.965ZM600.469 371.404C598.415 372.324 596.187 372.858 594.792 372.658C593.556 372.49 592.259 372.349 590.972 372.229C588.767 372.005 589.017 370.294 591.578 368.399C594.139 366.504 598.02 365.126 600.224 365.35C601.591 365.486 602.958 365.622 604.273 365.806C606.427 366.079 606.047 367.822 603.416 369.723C602.546 370.371 601.497 370.944 600.469 371.404ZM236.028 526.679C234.82 527.221 233.493 527.66 232.28 527.868C229.244 528.378 228.103 527.29 229.604 525.457C230.543 524.314 231.552 523.166 232.561 522.017C234.192 520.152 237.922 518.275 240.847 517.841C243.833 517.38 244.923 518.517 243.282 520.361C242.314 521.439 241.416 522.512 240.528 523.606C239.579 524.727 237.901 525.84 236.028 526.679ZM579.516 370.14C577.704 370.952 575.826 371.458 574.377 371.463C572.928 371.467 571.469 371.45 569.97 371.503C567.451 371.548 567.146 370.06 569.398 368.123C571.599 366.234 575.454 364.636 578.043 364.585C579.623 364.548 581.212 364.532 582.741 364.544C585.209 364.547 585.392 366.09 583.06 368.011C582.108 368.799 580.846 369.545 579.516 370.14ZM251.809 509.758C250.299 510.435 248.701 510.918 247.31 511.052C244.527 511.318 243.851 509.971 245.833 508.077C247.052 506.912 248.261 505.725 249.541 504.533C251.583 502.613 255.399 500.929 258.08 500.759C260.822 500.563 261.367 501.943 259.316 503.842L255.811 507.192C254.855 508.136 253.38 509.054 251.809 509.758ZM555.663 371.31C554.152 371.987 552.555 372.471 551.224 372.577C549.623 372.727 547.951 372.883 546.299 373.081C543.466 373.396 542.678 372.124 544.519 370.242C546.361 368.36 550.138 366.59 552.972 366.275C554.704 366.092 556.506 365.904 558.177 365.748C560.96 365.482 561.636 366.829 559.715 368.695C558.76 369.639 557.295 370.579 555.663 371.31ZM271.083 492.536C269.27 493.348 267.393 493.854 265.934 493.837C263.456 493.812 263.343 492.264 265.614 490.369C267.044 489.187 268.473 488.006 269.972 486.818C272.374 484.891 276.216 483.427 278.634 483.479C281.061 483.552 281.053 485.155 278.712 487.055C277.324 488.167 275.945 489.3 274.627 490.406C273.614 491.221 272.352 491.967 271.083 492.536ZM529.441 374.805C528.233 375.347 526.906 375.786 525.754 375.967C524 376.263 522.186 376.586 520.381 376.93C517.303 377.509 516.042 376.475 517.473 374.648C518.903 372.821 522.544 370.907 525.621 370.327C527.496 369.977 529.441 369.622 531.265 369.32C534.292 368.79 535.502 369.872 534.002 371.705C532.983 372.832 531.315 373.966 529.441 374.805ZM293.414 475.336C291.299 476.284 289.132 476.79 287.676 476.617C285.522 476.344 285.962 474.574 288.593 472.673C290.242 471.496 291.892 470.319 293.55 469.163C296.261 467.278 300.06 466.041 302.102 466.389C304.145 466.738 303.634 468.514 300.924 470.399C299.376 471.479 297.778 472.607 296.24 473.709C295.43 474.33 294.441 474.876 293.414 475.336ZM501.221 380.64C500.254 381.073 499.249 381.42 498.265 381.654C496.369 382.117 494.472 382.58 492.585 383.064C489.333 383.902 487.547 383.155 488.516 381.431C489.485 379.708 492.918 377.654 496.17 376.816C498.188 376.299 500.155 375.831 502.182 375.335C505.393 374.567 507.118 375.341 506.019 377.098C505.328 378.31 503.396 379.665 501.221 380.64ZM318.456 458.521C316.039 459.604 313.573 460.09 312.231 459.685C310.471 459.158 311.424 457.236 314.364 455.377C316.172 454.232 317.99 453.108 319.808 451.984C322.768 450.168 326.462 449.183 328.11 449.786C329.759 450.389 328.736 452.317 325.777 454.132C324.07 455.181 322.312 456.278 320.615 457.348C319.938 457.78 319.242 458.169 318.456 458.521ZM471.663 388.672C470.999 388.97 470.254 389.252 469.551 389.464C467.572 390.067 465.593 390.669 463.684 391.267C460.378 392.309 458.078 391.87 458.605 390.293C459.131 388.716 462.297 386.55 465.602 385.508C467.642 384.878 469.741 384.221 471.851 383.585C475.176 382.585 477.356 383.079 476.708 384.71C476.196 385.997 474.141 387.562 471.663 388.672ZM345.737 442.328C343.017 443.546 340.242 443.99 339.144 443.321C337.839 442.513 339.313 440.46 342.391 438.746C344.308 437.681 346.285 436.589 348.212 435.545C351.359 433.826 354.899 433.143 356.143 433.978C357.388 434.813 355.783 436.899 352.636 438.618C350.83 439.608 348.964 440.624 347.107 441.662C346.703 441.895 346.16 442.138 345.737 442.328ZM441.3 398.793C440.877 398.983 440.445 399.151 440.072 399.292C438.132 399.981 436.08 400.745 434.159 401.477C430.8 402.724 428.064 402.609 428.148 401.178C428.233 399.747 431.019 397.545 434.378 396.298C436.49 395.507 438.612 394.737 440.664 393.972C444.033 392.747 446.657 392.937 446.512 394.395C446.3 395.702 444.08 397.548 441.3 398.793ZM374.657 427.205C371.575 428.586 368.612 428.934 367.809 427.952C366.917 426.933 368.863 424.798 372.128 423.18L378.205 420.226C381.49 418.651 384.785 418.232 385.556 419.305C386.327 420.378 384.311 422.519 381.026 424.094C379.112 425.003 377.147 425.961 375.242 426.892C375.01 427.021 374.838 427.124 374.657 427.205ZM410.745 410.754L410.322 410.943C408.37 411.767 406.356 412.617 404.413 413.462C401.071 414.908 398.03 415.084 397.612 413.827C397.203 412.591 399.569 410.423 402.972 408.95C405.036 408.051 407.17 407.146 409.244 406.269C412.606 404.866 415.596 404.738 415.883 406.028C416.152 407.275 413.887 409.346 410.745 410.754Z" fill="#B4B4B4"/>
<path d="M564.639 363.653C555.636 367.686 549.489 373.561 550.922 376.761C552.356 379.961 560.832 379.285 569.835 375.251C578.838 371.218 584.985 365.343 583.551 362.143C582.118 358.943 573.642 359.619 564.639 363.653Z" fill="#AFAFAF"/>
<path d="M562.714 359.357C547.065 366.368 536.345 376.612 538.837 382.175C541.33 387.738 556.109 386.558 571.759 379.547C587.409 372.536 598.128 362.292 595.636 356.729C593.144 351.166 578.364 352.346 562.714 359.357ZM550.862 376.788C549.428 373.588 555.575 367.713 564.578 363.68C573.582 359.647 582.057 358.97 583.491 362.17C584.925 365.37 578.778 371.245 569.774 375.278C560.771 379.312 552.296 379.988 550.862 376.788Z" fill="#B4B4B4"/>
</g>
<path d="M560 534.578C560 560.835 569.904 586.016 587.532 604.582C605.16 623.148 629.07 633.578 654 633.578C678.93 633.578 702.84 623.148 720.468 604.582C738.096 586.016 748 560.835 748 534.578C748 508.322 738.096 483.141 720.468 464.575C702.84 446.008 678.93 435.578 654 435.578C629.07 435.578 605.16 446.008 587.532 464.575C569.904 483.141 560 508.322 560 534.578Z" fill="#005BFF"/>
<path d="M280 543.078C280 553.554 283.951 563.601 290.983 571.009C298.016 578.417 307.554 582.578 317.5 582.578C327.446 582.578 336.984 578.417 344.016 571.009C351.049 563.601 355 553.554 355 543.078C355 532.602 351.049 522.555 344.016 515.147C336.984 507.74 327.446 503.578 317.5 503.578C307.554 503.578 298.016 507.74 290.983 515.147C283.951 522.555 280 532.602 280 543.078Z" fill="#005BFF"/>
<path d="M508 656.078C508 666.554 511.951 676.601 518.983 684.009C526.016 691.417 535.554 695.578 545.5 695.578C555.446 695.578 564.984 691.417 572.016 684.009C579.049 676.601 583 666.554 583 656.078C583 645.602 579.049 635.555 572.016 628.147C564.984 620.74 555.446 616.578 545.5 616.578C535.554 616.578 526.016 620.74 518.983 628.147C511.951 635.555 508 645.602 508 656.078Z" fill="#005BFF"/>
<path d="M177.872 427.954C168.426 423.425 157.659 422.643 147.938 425.781C138.218 428.92 130.341 435.721 126.041 444.689C121.741 453.656 121.369 464.056 125.008 473.601C128.646 483.145 135.997 491.051 145.443 495.581C154.89 500.111 165.657 500.892 175.377 497.754C185.098 494.616 192.974 487.815 197.275 478.847C201.575 469.879 201.947 459.479 198.308 449.935C194.669 440.391 187.318 432.484 177.872 427.954Z" fill="#005BFF"/>
<path d="M237.625 146.079C228.179 141.549 217.411 140.768 207.691 143.906C197.971 147.044 190.094 153.845 185.794 162.813C181.494 171.781 181.122 182.181 184.761 191.725C188.399 201.27 195.75 209.176 205.196 213.706C214.642 218.236 225.41 219.017 235.13 215.879C244.85 212.741 252.727 205.94 257.027 196.972C261.328 188.004 261.699 177.604 258.061 168.06C254.422 158.515 247.071 150.609 237.625 146.079Z" fill="#005BFF"/>
<path d="M393 594.078C393 604.554 396.951 614.601 403.983 622.009C411.016 629.417 420.554 633.578 430.5 633.578C440.446 633.578 449.984 629.417 457.016 622.009C464.049 614.601 468 604.554 468 594.078C468 583.602 464.049 573.555 457.016 566.147C449.984 558.74 440.446 554.578 430.5 554.578C420.554 554.578 411.016 558.74 403.983 566.147C396.951 573.555 393 583.602 393 594.078Z" fill="#005BFF"/>
<path d="M317.322 367.286C298.906 358.455 277.914 356.931 258.964 363.049C240.013 369.168 224.657 382.427 216.273 399.91C207.89 417.394 207.165 437.669 214.259 456.276C221.353 474.884 235.684 490.298 254.1 499.129C272.516 507.96 293.508 509.484 312.458 503.366C331.408 497.247 346.765 483.988 355.148 466.505C363.532 449.021 364.257 428.746 357.163 410.138C350.069 391.531 335.738 376.117 317.322 367.286Z" fill="#005BFF"/>
<path d="M113 662.078C113 672.554 116.951 682.601 123.983 690.009C131.016 697.417 140.554 701.578 150.5 701.578C160.446 701.578 169.984 697.417 177.016 690.009C184.049 682.601 188 672.554 188 662.078C188 651.602 184.049 641.555 177.016 634.147C169.984 626.74 160.446 622.578 150.5 622.578C140.554 622.578 131.016 626.74 123.983 634.147C116.951 641.555 113 651.602 113 662.078Z" fill="#005BFF"/>
<path d="M295.513 166.075C283.713 160.416 270.262 159.44 258.12 163.36C245.978 167.28 236.138 175.776 230.767 186.979C225.395 198.181 224.93 211.172 229.476 223.095C234.021 235.017 243.204 244.894 255.003 250.552C266.803 256.211 280.254 257.187 292.396 253.267C304.539 249.347 314.378 240.851 319.75 229.648C325.122 218.446 325.586 205.455 321.041 193.532C316.495 181.61 307.313 171.733 295.513 166.075Z" fill="#005BFF"/>
<path d="M0 483.078C0 493.554 3.95088 503.601 10.9835 511.009C18.0161 518.417 27.5544 522.578 37.5 522.578C47.4456 522.578 56.9839 518.417 64.0165 511.009C71.0491 503.601 75 493.554 75 483.078C75 472.602 71.0491 462.555 64.0165 455.147C56.9839 447.74 47.4456 443.578 37.5 443.578C27.5544 443.578 18.0161 447.74 10.9835 455.147C3.95088 462.555 0 472.602 0 483.078Z" fill="#005BFF"/>
<path d="M386.538 432.904C386.538 455.687 395.111 477.537 410.371 493.648C425.631 509.758 446.328 518.808 467.909 518.808C489.49 518.808 510.187 509.758 525.447 493.648C540.707 477.537 549.28 455.687 549.28 432.904C549.28 410.121 540.707 388.271 525.447 372.161C510.187 356.051 489.49 347 467.909 347C446.328 347 425.631 356.051 410.371 372.161C395.111 388.271 386.538 410.121 386.538 432.904Z" fill="#B4B4B4"/>
<g clip-path="url(#clip1_2_23)">
<path d="M266.362 292.137C267.76 289.488 271.401 288.639 274.522 290.286C277.642 291.934 279.076 295.402 277.734 298.081C276.92 299.622 276.137 301.241 275.38 302.813C274.095 305.521 270.485 306.449 267.257 304.867C264.086 303.316 262.57 299.866 263.881 297.109C264.638 295.538 265.471 293.822 266.362 292.137C266.336 292.185 266.336 292.185 266.362 292.137ZM277.588 273.489C277.664 273.344 277.766 273.151 277.925 272.989L281.2 268.436C282.996 265.996 286.856 265.694 289.742 267.649C292.684 269.634 293.543 273.229 291.772 275.62C290.731 277.042 289.69 278.463 288.706 279.914C286.967 282.384 283.169 282.842 280.202 280.905C277.353 279.155 276.291 275.945 277.588 273.489ZM255.794 317.231C257.04 314.871 260.176 313.878 263.191 315.039C266.515 316.302 268.385 319.63 267.44 322.519L265.849 327.592C264.987 330.462 261.621 331.888 258.303 330.752C254.985 329.616 252.976 326.275 253.783 323.375C254.307 321.558 254.888 319.77 255.469 317.983C255.54 317.712 255.667 317.471 255.794 317.231ZM295.013 252.447C295.216 252.062 295.476 251.706 295.793 251.381C297.087 250.031 298.437 248.712 299.787 247.392C301.986 245.289 305.895 245.443 308.52 247.754C311.145 250.064 311.505 253.642 309.306 255.745C308.007 256.969 306.739 258.27 305.497 259.524C303.386 261.735 299.451 261.628 296.775 259.414C294.553 257.44 293.894 254.566 295.013 252.447ZM249.452 343.94C250.546 341.869 253.152 340.782 255.979 341.474C259.393 342.291 261.781 345.462 261.284 348.464C261.006 350.227 260.785 352.02 260.564 353.812C260.18 356.874 257.111 358.702 253.728 357.963C250.289 357.194 247.849 354.119 248.208 351.106C248.397 349.235 248.695 347.298 248.998 345.487C249.026 344.885 249.198 344.422 249.452 343.94ZM315.914 234.165C316.244 233.539 316.663 233.021 317.277 232.545C318.829 231.393 320.38 230.241 321.963 229.168C324.509 227.371 328.441 228.03 330.749 230.666C333.083 233.254 332.887 236.785 330.285 238.552C328.785 239.607 327.284 240.663 325.84 241.748C323.352 243.575 319.425 243.042 317.066 240.502C315.26 238.563 314.896 236.092 315.914 234.165ZM247.338 371.712C248.305 369.882 250.468 368.807 253 369.097C256.422 369.487 259.266 372.345 259.217 375.46C259.217 377.246 259.248 379.111 259.305 380.927C259.395 384.054 256.734 386.345 253.287 386.003C249.84 385.661 246.944 382.9 246.854 379.772C246.792 377.83 246.729 375.887 246.724 373.975C246.821 373.103 247.007 372.338 247.338 371.712ZM339.816 219.131C340.248 218.313 340.907 217.614 341.882 217.143C343.584 216.255 345.368 215.35 347.127 214.492C349.968 213.097 353.867 214.233 355.77 217.086C357.699 219.891 356.973 223.326 354.076 224.691C352.399 225.53 350.722 226.369 349.128 227.191C346.318 228.663 342.451 227.606 340.44 224.82C339.051 222.916 338.926 220.817 339.816 219.131ZM249.675 399.987C250.514 398.397 252.236 397.336 254.446 397.271C257.876 397.234 260.981 399.736 261.487 402.899C261.765 404.709 262.099 406.548 262.434 408.388C262.576 409.134 262.557 409.878 262.379 410.578C262.201 411.278 261.867 411.92 261.396 412.466C260.925 413.013 260.327 413.455 259.635 413.765C258.944 414.075 258.173 414.248 257.367 414.274C256.561 414.303 255.735 414.185 254.937 413.926C254.138 413.667 253.383 413.272 252.714 412.764C252.045 412.256 251.476 411.646 251.039 410.967C250.602 410.288 250.306 409.555 250.167 408.809C249.802 406.891 249.461 404.925 249.178 402.989C249.043 401.871 249.217 400.854 249.675 399.987ZM366.206 207.629C366.766 206.569 367.697 205.768 368.975 205.272C370.853 204.601 372.788 203.96 374.697 203.367C377.751 202.392 381.478 203.991 383.027 206.965C384.52 209.909 383.258 213.123 380.178 214.146C378.351 214.72 376.581 215.325 374.785 215.978C371.762 217.031 367.984 215.528 366.409 212.602C365.443 210.86 365.468 209.026 366.206 207.629ZM256.268 428.169C256.981 426.82 258.374 425.831 260.187 425.557C263.486 425.082 266.933 427.21 267.907 430.312C268.463 432.145 269.044 433.93 269.681 435.745C270.738 438.828 268.965 441.773 265.698 442.326C262.431 442.88 258.933 440.848 257.876 437.765C257.207 435.871 256.564 433.93 255.977 432.019C255.552 430.624 255.683 429.277 256.268 428.169ZM394.649 199.798C395.31 198.545 396.539 197.593 398.239 197.259C400.211 196.822 402.271 196.493 404.274 196.134C407.541 195.581 411.039 197.613 412.096 200.696C413.152 203.779 411.379 206.724 408.112 207.277C406.191 207.618 404.27 207.958 402.405 208.329C399.169 208.961 395.621 207.025 394.482 203.96C393.887 202.475 394.013 201.002 394.649 199.798ZM266.988 455.82C267.599 454.664 268.638 453.796 270.085 453.39C273.227 452.524 276.903 454.219 278.288 457.229C279.116 458.96 279.975 460.769 280.859 462.529C282.326 465.521 281.064 468.735 277.953 469.68C274.843 470.624 271.116 469.025 269.649 466.033C268.733 464.194 267.843 462.308 266.928 460.469C266.27 458.828 266.276 457.169 266.988 455.82ZM424.517 195.861C425.306 194.367 426.863 193.342 428.903 193.188C431.001 193.063 433.098 192.939 435.17 192.863C438.568 192.748 441.806 195.135 442.395 198.28C442.983 201.424 440.782 204.081 437.384 204.195C435.394 204.253 433.436 204.39 431.478 204.526C428.111 204.719 424.847 202.379 424.094 199.271C423.815 198.015 424.008 196.824 424.517 195.861ZM281.672 482.423C282.155 481.508 282.922 480.742 284.035 480.283C286.964 478.996 290.787 480.276 292.634 483.099C293.708 484.775 294.782 486.451 295.938 488.109C297.867 490.914 297.084 494.319 294.243 495.714C291.402 497.109 287.529 495.925 285.6 493.121C284.412 491.385 283.25 489.601 282.145 487.847C280.895 485.955 280.858 483.964 281.672 482.423ZM455.256 195.771C456.172 194.037 458.114 192.969 460.501 193.12C462.61 193.249 464.776 193.407 466.86 193.583C470.275 193.847 473.145 196.656 473.317 199.765C473.464 202.923 470.772 205.135 467.356 204.871C465.355 204.677 463.328 204.53 461.358 204.414C457.916 204.198 454.996 201.485 454.741 198.394C454.669 197.432 454.849 196.542 455.256 195.771ZM300.012 507.322C300.394 506.6 300.92 506.016 301.673 505.551C304.307 503.862 308.245 504.648 310.414 507.272C311.703 508.815 313.049 510.389 314.364 511.884C316.616 514.489 316.42 518.02 313.9 519.769C311.323 521.488 307.391 520.828 305.114 518.271C303.711 516.667 302.252 515.034 300.931 513.413C299.347 511.468 299.071 509.104 300.012 507.322ZM486.321 199.734C487.364 197.76 489.749 196.678 492.457 197.184C494.578 197.565 496.73 198.024 498.825 198.453C502.207 199.192 504.729 202.249 504.346 205.311C503.987 208.325 500.949 210.231 497.51 209.462C495.497 209.015 493.458 208.616 491.476 208.247C488.043 207.604 485.496 204.595 485.74 201.522C485.793 200.872 486.042 200.264 486.321 199.734ZM321.713 530.117C321.968 529.635 322.336 529.213 322.76 528.821C325.073 526.778 328.987 527.059 331.562 529.466C333.066 530.876 334.596 532.239 336.126 533.601C338.751 535.911 339.086 539.537 336.887 541.641C334.688 543.744 330.722 543.559 328.097 541.249C326.453 539.826 324.836 538.356 323.3 536.868C321.16 534.875 320.62 532.188 321.713 530.117ZM517.039 207.517C518.209 205.302 521.092 204.238 524.013 205.164C526.064 205.816 528.171 206.498 530.252 207.227C533.57 208.364 535.605 211.655 534.773 214.604C533.967 217.504 530.602 218.93 527.227 217.764C525.259 217.094 523.291 216.425 521.354 215.833C518.011 214.745 515.868 211.519 516.618 208.589C516.739 208.222 516.861 207.855 517.039 207.517ZM346.254 550.283C346.381 550.042 346.533 549.753 346.743 549.494C348.627 547.163 352.518 546.939 355.353 548.99L360.418 552.589C363.335 554.622 364.219 558.169 362.366 560.578C360.513 562.988 356.71 563.32 353.793 561.287C351.991 560.027 350.19 558.768 348.413 557.46C345.925 555.715 345.033 552.595 346.254 550.283ZM546.852 219.073C548.174 216.569 551.563 215.648 554.671 217.043C556.651 217.966 558.688 218.918 560.642 219.889C563.813 221.44 565.386 224.919 564.101 227.628C562.815 230.337 559.18 231.313 556.009 229.761C554.168 228.85 552.245 227.958 550.379 227.096C547.157 225.64 545.502 222.179 546.73 219.44C546.75 219.266 546.801 219.17 546.852 219.073ZM373.204 567.534L373.281 567.389C374.793 564.8 378.465 564.029 381.591 565.804C383.381 566.811 385.254 567.799 387.069 568.758C390.19 570.406 391.598 573.922 390.199 576.571C388.8 579.22 385.102 580.039 381.982 578.391C380.053 577.372 378.067 576.323 376.164 575.257C373.151 573.542 371.831 570.135 373.204 567.534ZM575.137 234.072L575.315 233.735C576.941 231.206 580.732 230.621 583.751 232.462C585.629 233.577 587.481 234.74 589.309 235.951C592.302 237.84 593.325 241.398 591.642 243.898C589.96 246.397 586.162 246.855 583.169 244.967C581.43 243.863 579.634 242.73 577.869 241.675C574.964 239.894 573.814 236.577 575.137 234.072ZM401.286 581.132C402.558 578.724 405.833 577.743 408.853 579.03C410.745 579.845 412.662 580.611 414.605 581.329C417.903 582.639 419.774 585.968 418.828 588.856C417.827 591.715 414.399 592.985 411.075 591.722C409.019 590.944 406.988 590.118 404.983 589.244C401.71 587.885 399.947 584.491 401.006 581.662L401.286 581.132ZM601.44 252.275C601.618 251.937 601.852 251.63 602.087 251.323C604.142 249.082 608.013 249.032 610.797 251.18C612.548 252.536 614.217 253.91 615.885 255.284C618.618 257.528 619.117 261.117 617.006 263.329C614.895 265.54 610.992 265.512 608.259 263.268C606.704 261.953 605.066 260.658 603.429 259.362C601.042 257.424 600.27 254.49 601.44 252.275ZM431.437 591.635C432.582 589.467 435.301 588.44 438.216 589.24C440.179 589.783 442.198 590.357 444.185 590.852C447.574 591.718 449.906 594.859 449.409 597.861C448.912 600.863 445.754 602.583 442.365 601.717L436.062 600.052C432.642 599.108 430.418 595.901 431.054 592.91C431.062 592.483 431.208 592.068 431.437 591.635ZM625.162 273.303C625.442 272.773 625.86 272.255 626.367 271.845C628.768 269.91 632.663 270.365 635.13 272.838C636.64 274.375 638.15 275.912 639.635 277.497C642.02 279.988 641.938 283.579 639.506 285.436C637.074 287.293 633.091 286.729 630.706 284.238C629.309 282.761 627.856 281.254 626.433 279.826C624.571 277.857 624.119 275.277 625.162 273.303ZM462.272 598.371C463.264 596.493 465.535 595.352 468.155 595.75C470.162 596.07 472.195 596.343 474.171 596.586C477.624 597.054 480.386 599.93 480.362 602.997C480.313 606.113 477.508 608.265 474.112 607.827C471.997 607.572 469.851 607.239 467.761 606.937C464.334 606.42 461.622 603.448 461.785 600.393C461.806 599.665 461.967 598.949 462.272 598.371ZM645.819 296.839C646.226 296.068 646.859 295.417 647.695 294.935C650.416 293.354 654.335 294.314 656.397 297.005C657.692 298.674 659.018 300.422 660.231 302.109C662.268 304.848 661.655 308.343 658.871 309.768C656.118 311.271 652.168 310.232 650.214 307.475C649.033 305.866 647.794 304.226 646.587 302.665C645.116 300.779 644.928 298.524 645.819 296.839ZM493.31 601.15C494.175 599.512 496.061 598.414 498.334 598.506C500.33 598.574 502.351 598.594 504.315 598.584C507.719 598.596 510.88 601.128 511.33 604.26C511.78 607.393 509.409 609.96 506.005 609.948C503.902 609.946 501.798 609.944 499.664 609.864C496.229 609.775 493.175 607.176 492.807 604.026C492.647 602.955 492.878 601.969 493.31 601.15ZM663.051 322.324C663.56 321.361 664.435 320.529 665.63 320.052C668.647 318.873 672.393 320.297 674.132 323.187C675.212 324.989 676.21 326.809 677.208 328.63C678.839 331.585 677.691 334.859 674.668 335.912C671.62 337.012 667.842 335.51 666.267 332.584C665.358 330.872 664.366 329.178 663.317 327.454C662.294 325.681 662.263 323.817 663.051 322.324ZM523.889 599.99C524.652 598.545 526.127 597.538 528.054 597.324C529.981 597.109 531.965 596.925 533.86 596.633C537.134 596.205 540.581 598.334 541.529 601.483C542.447 604.555 540.561 607.439 537.205 607.885C535.171 608.166 533.079 608.416 531.013 608.619C527.709 608.968 524.313 606.743 523.503 603.605C523.167 602.319 523.329 601.049 523.889 599.99ZM676.534 349.278C677.17 348.074 678.316 347.139 679.903 346.745C683.076 345.957 686.732 347.827 687.953 350.874C688.704 352.749 689.512 354.654 690.238 356.577C691.433 359.672 689.774 362.676 686.538 363.308C683.277 363.988 679.728 362.052 678.589 358.987L676.43 353.596C675.778 352.082 675.872 350.53 676.534 349.278ZM553.37 594.863C554.006 593.659 555.152 592.724 556.713 592.378C558.547 591.93 560.462 591.463 562.264 590.936C565.406 590.07 569.056 591.813 570.441 594.824C571.826 597.834 570.394 600.958 567.252 601.824C565.311 602.339 563.288 602.873 561.373 603.339C558.2 604.127 554.543 602.258 553.297 599.259C552.646 597.745 552.683 596.163 553.37 594.863ZM685.964 377.172C686.727 375.727 688.203 374.72 690.186 374.535C693.547 374.216 696.861 376.459 697.697 379.549C698.201 381.478 698.706 383.408 699.129 385.356C699.856 388.512 697.712 391.198 694.376 391.47C690.984 391.711 687.721 389.371 686.968 386.263C686.551 384.442 686.078 382.59 685.579 380.787C685.268 379.453 685.43 378.183 685.964 377.172ZM581.266 586.004C581.775 585.041 582.65 584.209 583.82 583.78C585.559 583.097 587.324 582.365 589.032 581.604C591.96 580.318 595.758 581.645 597.579 584.517C599.4 587.388 598.447 590.704 595.519 591.991C593.728 592.77 591.856 593.567 590.035 594.269C587.075 595.477 583.246 594.071 581.507 591.182C580.566 589.391 580.478 587.497 581.266 586.004ZM691.263 405.471C692.153 403.785 694.014 402.735 696.313 402.779C699.748 402.868 702.776 405.515 703.144 408.665C703.345 410.62 703.547 412.574 703.692 414.498C703.92 417.637 701.373 419.988 697.932 419.772C694.49 419.556 691.544 416.891 691.315 413.752C691.177 411.954 691.006 410.078 690.811 408.25C690.625 407.228 690.831 406.29 691.263 405.471ZM607.054 573.444C607.461 572.674 608.095 572.023 608.931 571.54C610.519 570.593 612.108 569.645 613.64 568.668C616.273 566.979 620.186 567.813 622.412 570.467C624.638 573.121 624.247 576.611 621.614 578.3C619.974 579.343 618.303 580.309 616.607 581.322C613.886 582.903 609.998 582.021 607.88 579.301C606.326 577.433 606.139 575.178 607.054 573.444ZM692.154 433.598C693.171 431.671 695.474 430.608 698.094 431.006C701.521 431.523 704.176 434.465 704.045 437.598C703.968 439.529 703.835 441.43 703.702 443.331C703.457 446.404 700.532 448.371 697.099 447.728C693.666 447.085 691.093 444.125 691.338 441.051C691.477 439.277 691.584 437.424 691.667 435.62C691.688 434.892 691.823 434.224 692.154 433.598ZM630.138 557.486C630.418 556.956 630.837 556.438 631.344 556.028C632.756 554.864 634.169 553.701 635.499 552.556C637.786 550.561 641.758 550.872 644.276 553.248C646.793 555.625 646.989 559.239 644.702 561.234C643.264 562.446 641.8 563.706 640.28 564.936C637.88 566.871 633.959 566.464 631.492 563.991C629.547 562.04 629.096 559.46 630.138 557.486ZM688.784 461.138C689.928 458.97 692.73 457.924 695.563 458.743C698.957 459.735 701.181 462.942 700.571 465.884C700.185 467.713 699.774 469.591 699.332 471.39C698.64 474.35 695.306 475.854 691.937 474.814C688.568 473.774 686.451 470.5 687.144 467.54C687.535 465.837 687.952 464.086 688.312 462.305C688.377 461.908 688.606 461.475 688.784 461.138ZM650.032 538.364C650.21 538.027 650.445 537.72 650.654 537.461C651.84 536.177 653.02 534.768 654.092 533.424C656.033 531.123 659.924 530.899 662.733 532.999C665.542 535.098 666.319 538.711 664.378 541.012C663.173 542.47 661.911 543.898 660.731 545.308C658.734 547.579 654.837 547.677 652.053 545.529C649.666 543.591 648.862 540.579 650.032 538.364ZM681.035 487.351C682.332 484.895 685.582 483.962 688.659 485.279C691.932 486.638 693.695 490.033 692.636 492.862L690.553 498.044C689.381 500.813 685.834 501.896 682.612 500.441C679.389 498.986 677.709 495.573 678.881 492.804C679.582 491.203 680.251 489.524 680.894 487.892C680.939 487.67 680.959 487.495 681.035 487.351ZM666.424 516.53L666.602 516.193C667.529 514.712 668.482 513.182 669.353 511.671C670.865 509.082 674.568 508.389 677.695 510.164C680.764 511.908 682.034 515.412 680.496 518.049C679.574 519.656 678.571 521.282 677.592 522.86C675.967 525.389 672.232 526.004 669.213 524.163C666.308 522.383 665.101 519.035 666.424 516.53Z" fill="#AFAFAF"/>
<path d="M557.02 607.323C560.81 600.147 557.022 590.694 548.569 586.23C540.116 581.765 530.173 583.968 526.383 591.144C522.593 598.32 526.381 607.774 534.834 612.238C543.287 616.702 553.23 614.5 557.02 607.323Z" fill="#AFAFAF"/>
<path d="M568.367 613.316C574.954 600.841 568.35 584.357 553.656 576.597C538.962 568.837 521.624 572.677 515.036 585.152C508.449 597.626 515.053 614.111 529.747 621.871C544.441 629.631 561.779 625.79 568.367 613.316ZM548.594 586.181C557.048 590.646 560.835 600.099 557.045 607.275C553.255 614.452 543.313 616.654 534.859 612.19C526.406 607.725 522.619 598.272 526.409 591.096C530.199 583.92 540.141 581.717 548.594 586.181Z" fill="#AFAFAF"/>
<path d="M-12.497 528.743C-37.8116 468.815 -86.0837 416.25 -146.694 382.612C-207.304 348.974 -152.4 213.757 -212.801 226.114C-273.202 238.47 -321.074 274.127 -345.884 325.24C-370.694 376.353 -246.482 362.468 -221.167 422.396C-195.853 482.324 -271.509 611.158 -210.899 644.796C-150.289 678.434 -82.3051 690.39 -21.9037 678.033C38.4977 665.677 86.369 630.02 111.179 578.907C135.989 527.794 12.8175 588.672 -12.497 528.743Z" fill="#AFAFAF"/>
<path d="M521 237.5C521 255.933 527.269 273.61 538.427 286.644C549.586 299.678 564.72 307 580.5 307C596.28 307 611.414 299.678 622.573 286.644C633.731 273.61 640 255.933 640 237.5C640 219.067 633.731 201.39 622.573 188.356C611.414 175.322 596.28 168 580.5 168C564.72 168 549.586 175.322 538.427 188.356C527.269 201.39 521 219.067 521 237.5Z" fill="#005BFF"/>
</g>
<defs>
<clipPath id="clip0_2_23">
<rect width="678" height="241" fill="white" transform="translate(72 521.198) rotate(-24.1324)"/>
</clipPath>
<clipPath id="clip1_2_23">
<rect width="557.744" height="656.996" fill="white" transform="translate(893.416 306.806) rotate(117.839)"/>
</clipPath>
</defs>
</svg>
